<svg width="354" height="110" viewBox="0 0 354 110" fill="none" xmlns="http://www.w3.org/2000/svg">
<g clip-path="url(#clip0_50_2354)">
<path d="M146.74 96.5498H144.83V96.2298C144.83 95.4098 144.6 94.7498 144.13 94.2298C143.66 93.7198 143 93.4598 142.16 93.4598C140.93 93.4598 140.08 93.7998 139.6 94.4798C139.28 94.9298 139.12 95.6098 139.12 96.4998C139.12 97.6498 139.65 98.4198 140.71 98.8098L143.43 99.8098C144.97 100.4 146.01 101.04 146.54 101.72C147.01 102.33 147.24 103.22 147.24 104.4C147.24 106 146.76 107.26 145.81 108.17C144.86 109.08 143.56 109.53 141.93 109.53C140.93 109.53 140.07 109.36 139.34 109.01C138.42 108.56 137.74 107.82 137.3 106.81C137.13 106.45 137.03 106.01 136.99 105.51C136.95 105 136.93 104.41 136.93 103.73H138.79L138.74 104.28C138.74 105.46 138.96 106.32 139.4 106.87C139.91 107.51 140.78 107.82 142.01 107.82C142.99 107.82 143.78 107.57 144.38 107.06C144.98 106.55 145.28 105.82 145.28 104.87C145.28 103.72 145.04 102.93 144.55 102.51C144.34 102.33 143.66 102.02 142.51 101.6C141.78 101.34 141.22 101.14 140.83 100.99C140.1 100.72 139.54 100.48 139.15 100.29C138.41 99.9098 137.89 99.3998 137.6 98.7698C137.3 98.1398 137.16 97.3598 137.16 96.4298C137.16 95.0398 137.6 93.9098 138.48 93.0498C139.36 92.1898 140.49 91.7598 141.88 91.7598C143.39 91.7598 144.58 92.1398 145.44 92.8798C146.3 93.6298 146.73 94.7198 146.73 96.1598V96.5698L146.74 96.5498Z" fill="#F3E9DC"/>
<path d="M152.01 94.3696H150.19V92.0996H152.01V94.3696ZM152.01 109.12H150.19V96.4996H152.01V109.12Z" fill="#F3E9DC"/>
<path d="M157.05 96.5099V97.8699C157.53 97.2799 158.01 96.8599 158.48 96.5999C159.01 96.2999 159.61 96.1499 160.27 96.1499C161.24 96.1499 161.99 96.4199 162.54 96.9399C163.08 97.4699 163.36 98.2799 163.36 99.3699V109.13H161.59V99.8699C161.59 99.1599 161.44 98.6199 161.15 98.2499C160.86 97.8799 160.36 97.6899 159.66 97.6899C158.96 97.6899 158.38 97.9199 157.87 98.3699C157.53 98.6899 157.31 99.0199 157.2 99.3699C157.09 99.7199 157.04 100.16 157.04 100.69V109.13H155.32V96.5099H157.04H157.05Z" fill="#F3E9DC"/>
<path d="M170.48 97.6897C169.44 97.6897 168.72 98.2996 168.32 99.5296C168.06 100.32 167.93 101.41 167.93 102.82V103.36C167.93 104.63 168.04 105.6 168.27 106.26C168.65 107.38 169.34 107.94 170.33 107.94C171.21 107.94 171.82 107.6 172.17 106.92C172.43 106.42 172.56 105.69 172.56 104.72H174.33C174.33 106.08 174.05 107.18 173.49 108.01C172.82 108.99 171.83 109.48 170.52 109.48C168.78 109.48 167.56 108.8 166.87 107.44C166.37 106.46 166.12 104.96 166.12 102.95C166.12 100.36 166.54 98.5397 167.39 97.4797C168.1 96.5897 169.13 96.1396 170.48 96.1396C171.71 96.1396 172.65 96.5597 173.32 97.4097C173.94 98.1997 174.25 99.2096 174.25 100.45H172.57C172.57 99.6496 172.43 99.0196 172.16 98.5696C171.81 97.9796 171.25 97.6897 170.48 97.6897Z" fill="#F3E9DC"/>
<path d="M182.5 104.9H184.18V105.17C184.18 106.41 183.86 107.42 183.23 108.21C182.55 109.06 181.6 109.48 180.37 109.48C179.07 109.48 178.09 109 177.42 108.03C176.66 106.94 176.29 105.19 176.29 102.77C176.29 101.03 176.54 99.5997 177.04 98.4797C177.74 96.9197 178.83 96.1396 180.33 96.1396C182.11 96.1396 183.28 96.8996 183.82 98.4296C184.12 99.2796 184.27 100.78 184.27 102.95H178.14V103.84C178.14 105.06 178.25 105.97 178.46 106.54C178.81 107.48 179.46 107.95 180.41 107.95C181.12 107.95 181.66 107.67 182.02 107.11C182.34 106.63 182.5 106.01 182.5 105.27V104.91V104.9ZM178.14 101.5H182.41C182.41 100.35 182.33 99.5297 182.16 99.0497C181.86 98.1397 181.24 97.6897 180.32 97.6897C179.4 97.6897 178.79 98.1396 178.46 99.0296C178.25 99.6096 178.14 100.43 178.14 101.5Z" fill="#F3E9DC"/>
<path d="M198.52 109.12V96.7296H194.89V95.2296C196.22 95.2296 197.17 95.0396 197.73 94.6596C198.4 94.2096 198.8 93.3496 198.93 92.0996H200.43V109.12H198.52Z" fill="#F3E9DC"/>
<path d="M210.18 92.1099C212.22 92.1099 213.61 92.9899 214.35 94.7399C214.83 95.8699 215.08 97.6299 215.08 99.9999C215.08 101.72 215.01 103.06 214.88 104.02C214.64 105.65 214.19 106.92 213.54 107.81C212.72 108.93 211.56 109.49 210.05 109.49C208.81 109.49 207.84 109.12 207.15 108.38C206.45 107.64 206.11 106.65 206.11 105.41H208.02C208.02 106.2 208.2 106.79 208.56 107.18C208.92 107.57 209.5 107.77 210.28 107.77C211.54 107.77 212.39 106.89 212.84 105.14C213.1 104.16 213.23 102.83 213.23 101.15C212.91 101.85 212.47 102.37 211.89 102.72C211.32 103.07 210.7 103.24 210.05 103.24C208.61 103.24 207.51 102.72 206.74 101.67C206.04 100.73 205.7 99.5299 205.7 98.0599C205.7 96.2599 206.12 94.8199 206.96 93.7399C207.8 92.6599 208.88 92.1199 210.19 92.1199L210.18 92.1099ZM213.04 97.9999C213.04 96.8499 212.87 95.9199 212.52 95.2099C212.05 94.2599 211.3 93.7799 210.27 93.7799C209.3 93.7799 208.6 94.2099 208.16 95.0699C207.81 95.7399 207.64 96.6099 207.64 97.6799C207.64 98.7499 207.81 99.6299 208.14 100.27C208.58 101.12 209.29 101.54 210.27 101.54C211.25 101.54 211.98 101.18 212.45 100.45C212.84 99.8399 213.04 99.0299 213.04 97.9999Z" fill="#F3E9DC"/>
<path d="M217.17 94.1699V92.4399H226.52V94.0299C224.81 96.3699 223.48 98.7499 222.53 101.17C221.47 103.87 220.94 106.53 220.94 109.12H218.81C219.51 103.58 221.56 98.5899 224.98 94.1699H217.17Z" fill="#F3E9DC"/>
<path d="M233.55 109.49C231.51 109.49 230.12 108.61 229.38 106.84C228.9 105.69 228.65 103.93 228.65 101.55C228.65 99.8099 228.72 98.4699 228.85 97.5299C229.08 95.9299 229.52 94.6799 230.19 93.7899C231.02 92.6699 232.19 92.1099 233.68 92.1099C234.92 92.1099 235.89 92.4699 236.58 93.1999C237.28 93.9299 237.62 94.9099 237.62 96.1499H235.71C235.71 95.3599 235.53 94.7699 235.17 94.3799C234.81 93.9899 234.23 93.7899 233.44 93.7899C232.18 93.7899 231.33 94.6699 230.88 96.4199C230.62 97.3999 230.5 98.7299 230.5 100.41C230.82 99.7099 231.26 99.1899 231.84 98.8399C232.41 98.4899 233.03 98.3199 233.68 98.3199C235.12 98.3199 236.22 98.8399 236.99 99.8899C237.69 100.83 238.03 102.03 238.03 103.5C238.03 105.3 237.61 106.75 236.77 107.84C235.93 108.94 234.85 109.49 233.54 109.49H233.55ZM236.09 103.63C236.09 102.56 235.91 101.72 235.54 101.11C235.08 100.37 234.35 99.9999 233.34 99.9999C232.33 99.9999 231.59 100.37 231.17 101.11C230.85 101.65 230.69 102.44 230.69 103.45V103.95C230.69 105.28 230.95 106.26 231.48 106.9C231.96 107.47 232.64 107.76 233.5 107.76C234.5 107.76 235.21 107.29 235.63 106.35C235.93 105.69 236.08 104.78 236.08 103.63H236.09Z" fill="#F3E9DC"/>
<path d="M61.3602 0C66.5302 6.98 68.1902 16.51 67.7102 25.78C68.9802 24.64 75.3702 16.05 76.1602 15.18C86.9502 31 100.28 49.33 100.18 65.16C99.1602 80.31 89.4302 88.42 78.6502 91.23C83.7202 88.96 88.9102 82.68 89.5202 74.66C89.5602 74.32 89.6202 73.99 89.6202 73.66C89.6702 63.27 80.9302 52.96 73.8802 42.63L73.6602 42.57C63.0102 53.36 50.8202 61.6 53.3302 78.45C27.7902 52.47 49.4702 25.48 61.3602 0Z" fill="#F3E9DC"/>
<path d="M20.3199 76.6702C16.4799 73.9802 10.4699 70.2702 1.68994 68.4702C23.4799 128.66 69.7999 98.3602 76.0099 92.8402C63.0999 97.2902 53.9199 98.5402 40.9699 92.1902C33.9499 88.7702 27.1299 81.4202 20.3199 76.6702Z" fill="#F3E9DC"/>
<path d="M76.66 92.2698C34.7 108.19 12.4 61.9498 0 29.3398C11.03 29.3398 19.97 32.7098 27.79 40.4298C48.03 60.4198 43.6 93.5498 76.66 92.2698Z" fill="#F3E9DC"/>
<path d="M188.81 77.7697V31.7397H200.92V49.8197L216.04 31.7397H229.84L213.03 50.8497L230.9 77.7697H217.35L205.33 58.7497L200.92 63.8298V77.7697H188.81Z" fill="#F3E9DC"/>
<path d="M246.99 77.77V58.28L230.03 31.73H243.26L253.33 49.03L263.24 31.73H276.14L259.42 58.28V67.48C259.42 71.49 258.45 77.77 246.98 77.77H246.99Z" fill="#F3E9DC"/>
<path d="M176.78 77.7697V31.7397H188.87V77.7797H176.78V77.7697Z" fill="#F3E9DC"/>
<path d="M160.99 68.9197H145.23L142.78 77.7797H130.13L145.1 31.7397H161.71L176.79 77.7797H163.48L161 68.9197H160.99ZM158.37 59.0697L153.13 39.9897L147.96 59.0697H158.37Z" fill="#F3E9DC"/>
<path d="M113 77.77V41.55H98.73C98.73 41.55 102.37 31.73 113.58 31.73H139.6V41.55H125.38V77.77H113Z" fill="#F3E9DC"/>
<path d="M290.43 48.2598C289.95 47.3698 289.29 46.9098 288.42 46.9098C285.03 46.9098 281.48 50.4298 277.78 57.4698H284.49C284.49 58.0698 284.27 58.6498 283.83 59.1698C283.39 59.6998 282.87 59.9698 282.22 59.9698H276.76C274.79 64.1198 272.83 68.5998 270.9 73.4798C269 78.2398 266.96 83.8798 265.07 89.6998C265.01 89.8498 263.49 88.6398 263.24 86.5798C263.16 85.8898 263.07 85.1698 263.07 84.3898C263.07 79.4098 265.69 71.0498 270.58 60.0198H266.81C266.81 59.3698 267.02 58.7898 267.45 58.2798C267.84 57.7698 268.38 57.5098 269.06 57.5098H271.62C272.93 55.0398 274.22 52.9798 275.48 51.2698C276.73 49.5998 278.01 48.2398 279.36 47.1898C280.7 46.1398 282.12 45.3898 283.61 44.9398C285.06 44.4998 286.68 44.2598 288.47 44.2598C290.77 44.2598 291.9 44.9198 291.9 46.2098C291.9 47.3198 291.42 48.0098 290.43 48.2598Z" fill="#F3E9DC"/>
<path d="M282.9 61.6898C286.39 58.2998 290.13 56.5898 294.16 56.5898C297.37 56.5898 298.98 58.0598 298.98 60.9898C298.98 64.4498 297.45 68.0598 294.43 71.7898C291.02 75.9598 287.17 78.0198 282.88 78.0198C279.37 78.0198 277.64 76.2798 277.64 72.7598C277.64 68.7998 279.37 65.1098 282.91 61.6798L282.9 61.6898ZM288.1 63.7698C285.64 66.7098 284.42 69.5798 284.42 72.3498C284.42 73.4398 284.92 74.0298 285.95 74.0298C286.7 74.0298 287.49 73.8098 288.27 73.3898C289.08 72.9798 289.85 72.4198 290.58 71.7398C291.34 71.0698 292.04 70.2798 292.71 69.3698C293.4 68.4798 293.99 67.5198 294.49 66.5598C294.99 65.5698 295.37 64.5998 295.66 63.6398C295.96 62.6598 296.1 61.7798 296.1 60.9598C296.1 59.9498 295.65 59.4398 294.74 59.4398C292.73 59.4398 290.54 60.8998 288.1 63.7898V63.7698Z" fill="#F3E9DC"/>
<path d="M303.39 61.6898C306.87 58.2998 310.62 56.5898 314.65 56.5898C317.84 56.5898 319.47 58.0598 319.47 60.9898C319.47 64.4498 317.95 68.0598 314.91 71.7898C311.5 75.9598 307.66 78.0198 303.34 78.0198C299.84 78.0198 298.11 76.2798 298.11 72.7598C298.11 68.7998 299.86 65.1098 303.4 61.6798L303.39 61.6898ZM308.57 63.7698C306.11 66.7098 304.9 69.5798 304.9 72.3498C304.9 73.4398 305.42 74.0298 306.45 74.0298C307.18 74.0298 307.95 73.8098 308.73 73.3898C309.54 72.9798 310.32 72.4198 311.05 71.7398C311.81 71.0698 312.5 70.2798 313.2 69.3698C313.89 68.4798 314.45 67.5198 314.94 66.5598C315.47 65.5698 315.85 64.5998 316.15 63.6398C316.44 62.6598 316.59 61.7798 316.59 60.9598C316.59 59.9498 316.13 59.4398 315.24 59.4398C313.22 59.4398 311.01 60.8998 308.57 63.7898V63.7698Z" fill="#F3E9DC"/>
<path d="M353.3 45.19C350.1 47.88 346.64 52.53 342.98 59.16C338.71 66.9 336.61 73.48 336.61 78.91C335.14 78.91 334 78.35 333.16 77.2C332.34 76.05 331.9 74.54 331.9 72.71C331.9 71.32 332.06 70.28 332.33 69.64C328.99 75.11 325.36 77.85 321.44 77.85C319.19 77.85 318.06 76.39 318.06 73.5C318.06 71.37 318.58 69.3 319.62 67.25C320.65 65.23 322.03 63.46 323.75 61.89C325.48 60.31 327.5 59.05 329.73 58.06C331.98 57.12 334.33 56.62 336.74 56.62L338.45 56.81C340.01 53.95 341.36 51.69 342.51 49.99C343.67 48.28 344.7 46.99 345.63 46.1C346.54 45.2 347.37 44.63 348.13 44.36C348.86 44.12 349.64 43.98 350.4 43.98C351.76 43.98 352.73 44.36 353.32 45.17L353.3 45.19ZM327.81 63.81C325.66 66.58 324.61 69.13 324.61 71.4C324.61 72.08 324.88 72.41 325.45 72.41C327.23 72.41 329.34 70.83 331.85 67.62L337.22 59.3L335.8 59.15C332.82 59.15 330.16 60.7 327.81 63.8V63.81Z" fill="#F3E9DC"/>
</g>
<defs>
<clipPath id="clip0_50_2354">
<rect width="353.3" height="109.53" fill="white"/>
</clipPath>
</defs>
</svg>
