<svg width="24" height="24" viewBox="0 0 24 24" fill="none" xmlns="http://www.w3.org/2000/svg">
<path d="M11.7737 7.47906C11.7733 7.46551 11.7728 7.45196 11.7717 7.43832C11.7706 7.42463 11.7689 7.41113 11.7671 7.39767C11.7661 7.39071 11.7658 7.3838 11.7647 7.37679L11.0288 2.87679C11.013 2.77959 10.9785 2.68652 10.9273 2.6029C10.8762 2.51928 10.8094 2.44676 10.7307 2.38946C10.6521 2.33217 10.5631 2.29123 10.4689 2.26899C10.3747 2.24675 10.2772 2.24364 10.1818 2.25984C10.0865 2.27604 9.99515 2.31124 9.91314 2.36341C9.83113 2.41559 9.76 2.48372 9.70384 2.56392C9.64767 2.64412 9.60756 2.73481 9.5858 2.83082C9.56403 2.92682 9.56105 3.02625 9.57701 3.12343L10.1701 6.75011H8.46312V3.00011C8.46312 2.8012 8.38559 2.61044 8.24758 2.46978C8.10957 2.32913 7.92239 2.25011 7.72721 2.25011C7.53203 2.25011 7.34485 2.32913 7.20684 2.46978C7.06883 2.61044 6.9913 2.8012 6.9913 3.00011V6.75011H5.28433L5.87741 3.12343C5.89337 3.02625 5.89038 2.92682 5.86862 2.83082C5.84686 2.73481 5.80675 2.64412 5.75058 2.56392C5.69441 2.48372 5.62329 2.41559 5.54128 2.36341C5.45926 2.31124 5.36796 2.27604 5.2726 2.25984C5.17723 2.24364 5.07967 2.24675 4.98548 2.26899C4.8913 2.29123 4.80233 2.33217 4.72368 2.38946C4.64502 2.44676 4.57821 2.51928 4.52707 2.6029C4.47593 2.68652 4.44145 2.77959 4.42562 2.87679L3.6897 7.37679C3.68858 7.3838 3.68831 7.39071 3.68732 7.39767C3.68553 7.41112 3.68386 7.42463 3.68274 7.43832C3.68162 7.45196 3.68112 7.4655 3.68072 7.47906C3.68054 7.48611 3.67969 7.49302 3.67969 7.50011C3.67969 7.5068 3.68014 7.51334 3.68018 7.51998C3.68032 7.5246 3.68032 7.52918 3.68054 7.53376C3.68943 8.49132 4.02448 9.41598 4.6284 10.1496C5.23231 10.8832 6.06757 11.3802 6.9913 11.5555V21.0001C6.9913 21.199 7.06883 21.3898 7.20684 21.5304C7.34485 21.6711 7.53203 21.7501 7.72721 21.7501C7.92239 21.7501 8.10957 21.6711 8.24758 21.5304C8.38559 21.3898 8.46312 21.199 8.46312 21.0001V11.5555C9.38685 11.3802 10.2221 10.8832 10.826 10.1496C11.4299 9.41598 11.765 8.49132 11.7739 7.53376C11.7741 7.52918 11.7741 7.5246 11.7742 7.51998C11.7743 7.51334 11.7747 7.5068 11.7747 7.50011C11.7747 7.49302 11.7739 7.48611 11.7737 7.47906Z" fill="#F5821F"/>
<path d="M19.5004 2.98685C19.5002 2.97138 19.4994 2.9559 19.4981 2.94038C19.4973 2.92986 19.4964 2.91942 19.4951 2.90903C19.4936 2.89607 19.4916 2.88312 19.4893 2.87016C19.4871 2.85712 19.4846 2.84421 19.4818 2.83144C19.4794 2.82127 19.4768 2.81116 19.4741 2.80104C19.47 2.78598 19.4656 2.77115 19.4606 2.7565C19.4592 2.75229 19.4583 2.74803 19.4568 2.74382C19.4552 2.73929 19.4531 2.73508 19.4513 2.73059C19.4458 2.7159 19.4398 2.70146 19.4334 2.68729C19.4292 2.67804 19.4249 2.66891 19.4204 2.65991C19.4144 2.64783 19.408 2.63594 19.4013 2.62425C19.3954 2.61377 19.3893 2.60347 19.3829 2.59335C19.3769 2.58383 19.3705 2.57459 19.3641 2.56534C19.3563 2.55417 19.3484 2.54323 19.34 2.53261C19.3339 2.52478 19.3276 2.51723 19.3212 2.50967C19.312 2.49887 19.3026 2.4882 19.2929 2.478C19.2861 2.47086 19.279 2.46399 19.2719 2.45712C19.2621 2.4476 19.2522 2.43826 19.2419 2.42934C19.2336 2.42215 19.2251 2.41538 19.2165 2.40855C19.2069 2.40096 19.1972 2.3934 19.1872 2.38626C19.177 2.37898 19.1665 2.37216 19.156 2.36543C19.147 2.35971 19.1381 2.35394 19.1289 2.34863C19.1169 2.34167 19.1046 2.33527 19.0922 2.32899C19.0837 2.32469 19.0753 2.32039 19.0666 2.31641C19.0536 2.31045 19.0404 2.30505 19.0269 2.29983C19.018 2.2964 19.0092 2.29297 19.0001 2.28986C18.9873 2.28542 18.9742 2.28152 18.961 2.27782C18.9505 2.27484 18.9401 2.27205 18.9295 2.26953C18.9178 2.26683 18.906 2.2645 18.8941 2.26234C18.8812 2.25996 18.8683 2.25795 18.8552 2.2563C18.8452 2.25507 18.8351 2.25406 18.825 2.25319C18.8099 2.25195 18.7948 2.25117 18.7796 2.25085C18.7747 2.25076 18.77 2.25012 18.7652 2.25012C18.7608 2.25012 18.7564 2.25072 18.752 2.25081C18.7369 2.25108 18.7218 2.25191 18.7067 2.25314C18.6963 2.25397 18.686 2.25492 18.6758 2.25621C18.6631 2.25781 18.6504 2.25983 18.6377 2.26212C18.6249 2.2644 18.6122 2.26692 18.5997 2.2699C18.5897 2.27223 18.5798 2.27489 18.5699 2.27768C18.5551 2.2818 18.5405 2.28633 18.5262 2.29141C18.522 2.29283 18.5178 2.29375 18.5137 2.29526C18.5046 2.29864 18.4957 2.30267 18.4867 2.3061C18.4833 2.30752 18.4798 2.30876 18.4763 2.31022C16.5805 3.03637 15.0622 5.40672 13.9636 9.35818C13.4653 11.1816 13.1037 13.0409 12.8821 14.9202C12.8711 15.0248 12.8818 15.1306 12.9136 15.2308C12.9454 15.3309 12.9974 15.4231 13.0664 15.5014C13.1355 15.5796 13.2199 15.6422 13.3142 15.6851C13.4085 15.728 13.5106 15.7501 13.6138 15.7501H18.0293V21.0001C18.0293 21.199 18.1068 21.3898 18.2448 21.5305C18.3828 21.6711 18.57 21.7501 18.7652 21.7501C18.9604 21.7501 19.1476 21.6711 19.2856 21.5305C19.4236 21.3898 19.5011 21.199 19.5011 21.0001V3.00012C19.5011 2.99564 19.5005 2.99133 19.5004 2.98685Z" fill="#F5821F"/>
</svg>
