<svg width="97" height="80" viewBox="0 0 97 80" fill="none" xmlns="http://www.w3.org/2000/svg">
<path d="M39.3462 12.7879C39.1579 11.9675 41.9078 10.6472 45.4864 9.84557C49.0556 9.04397 52.1069 9.06283 52.2858 9.89273C52.4742 10.7132 49.7243 12.0335 46.1456 12.8351C42.567 13.6367 39.5251 13.6178 39.3368 12.7879H39.3462ZM56.26 8.24237L55.2617 3.78168C55.2147 3.59307 54.6967 3.53648 54.0846 3.67794C53.4724 3.8194 53.0204 4.08346 53.0675 4.27207L54.0657 8.73276L56.26 8.24237ZM38.6493 0.386655C21.6696 -1.82011 8.65466 6.12048 8.65466 6.12048L5.50922 31.2814C20.4642 19.5685 26.4819 31.6775 35.3532 32.3659C44.2245 33.0449 49.1781 28.1976 49.1781 28.1976C49.3758 28.1504 49.583 28.141 49.7808 28.1598C51.0427 28.3013 52.2952 28.4428 53.5572 28.5842C55.4689 28.8011 57.3713 29.018 59.283 29.2349C59.5844 29.2727 59.8951 29.301 60.1965 29.2632C60.4508 29.2255 60.705 29.1312 60.9405 29.0369C61.1759 28.9426 61.449 28.8483 61.5903 28.6219C61.741 28.3862 61.7692 28.0844 61.6468 27.8298L60.6203 25.6136C60.4508 25.2364 60.1212 24.9629 59.7351 24.8403L52.785 22.7278L50.9391 22.1714H50.9203C50.1104 22.426 49.2628 22.6618 48.3682 22.8598C48.1892 22.8976 48.0103 22.9353 47.8219 22.973C42.3316 24.1047 37.6511 23.5483 37.2273 21.6716C37.0107 20.7002 37.9807 19.5685 39.7135 18.5217L40.2315 20.8323C40.5517 22.2846 44.0926 22.7184 48.1327 21.813C52.1728 20.9077 55.1864 19.0121 54.8662 17.5693L54.3483 15.2399C56.3636 15.4474 57.7197 16.0698 57.9363 17.0411C58.0399 17.4938 57.8798 17.9842 57.5031 18.4935C57.0134 19.1536 56.1376 19.8232 54.9886 20.4645L56.2412 21.0492L60.9216 23.2276L62.193 23.7557C62.532 23.9066 62.8146 24.1801 62.9652 24.5196L63.907 26.6981C64.0953 27.1413 64.6321 27.3205 65.0559 27.0848L65.2066 26.9999C65.4985 26.8396 65.6304 26.5001 65.5268 26.1794L64.6321 23.2465C64.5285 22.907 64.3025 22.6146 64.0012 22.4355L60.2436 20.1532L59.4714 16.7111C59.1606 15.3059 57.2488 14.4006 54.4989 14.1271L57.4184 11.279C57.7197 10.9867 57.8421 10.5434 57.748 10.1191L57.4372 8.73276L53.124 9.69468C53.3971 10.9018 50.3364 12.6087 46.2963 13.5141C42.2562 14.4194 38.7623 14.1742 38.4892 12.9671L34.176 13.929L34.4868 15.3153C34.581 15.7397 34.8823 16.0886 35.2779 16.2301L39.1296 17.5598C36.7564 18.9744 35.4097 20.6059 35.7299 22.0205L36.7752 26.6981C35.1272 26.236 33.8935 24.6234 32.3867 22.9259C30.8799 21.2283 29.0906 19.4554 26.3407 18.6726C20.8315 17.1072 14.955 20.6059 14.955 20.6059L16.1321 11.1847C22.2817 6.79005 34.8729 7.34646 37.7358 7.67653L38.6493 0.386655ZM25.9169 54.4053C26.1429 54.1789 37.9807 42.3529 47.1251 57.159C46.8896 56.612 39.6382 39.6841 38.7718 34.3558C37.491 34.5538 36.3985 34.6293 35.5039 34.6104C35.438 34.6104 35.3815 34.6104 35.3155 34.6104C35.1743 34.6104 35.0424 34.6104 34.92 34.5915C32.867 34.4878 31.9535 33.9691 31.8876 33.9314C31.8876 33.9314 25.8698 52.2645 1.84583 60.6389L0 75.4356C0 75.4356 12.2521 71.7765 24.9092 58.187C32.7163 50.5293 41.8418 55.0183 41.8418 55.0183C41.8418 55.0183 34.5527 48.8412 25.9263 54.4053H25.9169ZM11.2256 37.4019C11.2256 41.0704 14.1921 44.041 17.8555 44.041C21.5189 44.041 24.4854 41.0704 24.4854 37.4019C24.4854 33.7333 21.5189 30.7627 17.8555 30.7627C14.1921 30.7627 11.2256 33.7333 11.2256 37.4019ZM64.9335 79.8963C64.0577 79.9623 63.1818 80 62.2872 80C53.4536 80 45.3734 76.5955 39.1296 70.956C35.8052 67.9571 35.7864 62.393 39.252 59.5827C42.4634 56.9798 47.8125 57.3476 52.0127 64.3452C57.7668 73.9267 62.1648 78.0856 64.9241 79.8963H64.9335ZM45.1474 65.7975L47.7184 63.9208H44.5352L43.5558 60.8935L42.5764 63.9208H39.3933L41.9643 65.7975L40.9849 68.8247L43.5558 66.948L46.1268 68.8247L45.138 65.7975H45.1474ZM75.9896 57.4985C75.9519 55.0937 75.3586 52.67 73.8989 50.9537C71.2809 57.7343 66.1578 65.0807 73.202 71.3333C72.2603 67.0329 75.255 64.6941 77.8072 61.7234H77.8637C79.8602 64.2697 82.2805 66.7877 82.4594 69.466C82.4594 69.5509 82.4594 69.6357 82.4594 69.7206C82.4406 71.8048 81.2163 73.5117 79.945 74.1813C82.676 73.276 85.0398 71.0126 85.0398 67.08C84.795 62.9966 81.0374 58.4982 77.9861 54.6033C77.7978 54.8391 76.291 57.1685 75.9896 57.4797V57.4985ZM70.2544 75.0961C68.3991 74.3416 66.5156 72.5592 64.6698 71.4558C63.6339 70.824 62.0235 69.9752 59.7256 69.664C66.3838 84.8096 77.7978 76.19 79.2857 74.6623C76.0461 76.0391 73.7012 76.5201 70.245 75.1055L70.2544 75.0961ZM65.9506 61.9686C63.8034 60.1108 61.4396 59.4035 58.605 59.5921C62.3625 67.7873 68.9077 79.3304 79.4458 74.4925C70.9513 75.3978 71.5163 66.7688 65.9506 61.9686ZM65.0936 15.5134C65.0936 15.5134 64.7451 19.3705 68.305 21.002C68.305 21.002 67.8529 24.397 71.2432 24.9629C71.2432 24.9629 71.0454 29.4518 76.6488 31.3568L75.6129 32.4696C75.6129 32.4696 74.3416 37.0529 81.2446 41.9851C81.6401 40.0141 84.1263 30.0837 94.2878 29.018C94.2689 27.1791 92.5173 18.0408 83.2034 18.9744L83.307 19.1442C82.3276 17.607 81.3011 16.1641 79.766 15.1267C78.1462 14.0422 76.3192 13.25 74.5017 12.571C73.9272 12.3541 73.3433 12.1561 72.75 11.9769C72.4486 11.8826 72.1379 11.7977 71.8365 11.7128C71.6952 11.9958 71.5634 12.3447 71.5069 12.7502C71.3468 13.7687 71.6576 15.0984 73.5128 16.3527C73.6635 16.4564 73.8236 16.5602 74.0025 16.6545C74.0025 16.6545 73.9366 16.7771 73.8613 16.9751C73.5976 17.7107 73.2491 19.512 75.7824 20.4173C75.8013 20.4173 75.8201 20.4362 75.8389 20.4362C75.8389 20.4362 75.8389 20.455 75.8201 20.4833C75.66 20.8134 74.8407 22.907 78.0709 24.6894C78.0709 24.6894 78.1556 24.7365 78.2027 24.7648C78.3628 24.8497 78.5323 24.9346 78.7113 25.01L78.8149 24.8308L79.0503 24.4348L81.2446 23.4162L84.2958 22.0016C84.2958 22.0016 83.4106 24.2556 85.6237 24.6611C87.8274 25.0666 86.9327 26.6981 86.9327 26.6981C83.7967 27.4903 80.5853 32.4508 80.5853 32.4508C78.9373 32.5074 78.3157 31.9415 78.3157 31.9415L77.6659 29.6216L77.4493 28.8577L77.8543 29.2915L77.9955 29.4518L78.7489 29.3104L78.7678 28.6974L80.0109 27.9147L79.6718 26.8773L79.1633 27.0282L77.1574 27.6317L78.4193 25.491C78.118 25.3778 77.8543 25.2646 77.6 25.142C73.6352 23.2654 75.1326 20.87 75.1326 20.87C71.0266 19.7666 72.75 16.8903 72.75 16.8903C68.3709 14.8249 69.501 12.2787 70.1602 11.3073C69.1054 11.081 68.0413 10.9207 66.9677 10.8169C64.877 10.6377 62.7863 10.5812 60.6956 10.5812C60.1212 10.5812 59.5561 10.5812 58.9817 10.5906C59.0476 11.5054 59.688 12.4296 60.2907 13.0803C61.5432 14.4289 63.3137 15.155 65.0842 15.5039L65.0936 15.5134ZM95.2389 38.8353C95.8793 37.7979 95.9264 36.4965 95.7004 35.214C95.2672 32.6865 93.7981 30.2157 93.685 30.0365C93.685 30.0365 90.6997 30.4043 87.6861 32.9506C91.3778 34.1577 90.4925 38.4392 90.4925 38.4392C93.2424 41.2873 90.8221 44.2202 90.8221 44.2202C93.3083 49.7277 89.3153 51.048 89.3153 51.048C89.5414 55.4521 86.8762 57.7343 85.1622 58.7434C85.5201 59.743 85.812 60.4975 85.9533 60.8935C86.6219 62.8363 87.1117 69.4848 87.1117 69.4848C90.4172 66.9009 90.4925 61.9403 90.4925 61.9403C93.6285 61.2048 93.685 56.6781 93.685 56.6781C97.8758 53.6603 95.8228 48.2754 95.8228 48.2754C98.7517 41.8437 95.2389 38.8259 95.2389 38.8259V38.8353ZM87.4318 33.507C87.3565 33.4599 87.2717 33.4221 87.1964 33.3938C87.0646 33.5164 86.9233 33.6485 86.7915 33.7805C84.8609 35.7232 83.0339 38.6656 82.1392 43.098C81.6872 45.6348 82.2617 49.0581 83.0998 52.2457C83.4577 53.6131 83.872 54.9428 84.2582 56.1405L84.2111 56.4706C84.2111 56.4706 84.3052 56.4329 84.3523 56.414C85.9251 55.6878 87.7803 54.0846 87.7991 50.6236C87.7991 50.6236 91.4154 49.6051 89.4943 44.2862C89.4943 44.2862 91.7921 41.6645 89.4943 38.8447C89.4943 38.8447 90.2194 35.0159 87.4413 33.5164L87.4318 33.507Z" fill="#F4891F"/>
</svg>
