<svg width="226" height="70" viewBox="0 0 226 70" fill="none" xmlns="http://www.w3.org/2000/svg">
<g clip-path="url(#clip0_26_586)">
<path d="M93.8637 61.7093H92.6379V61.4999C92.6379 60.9765 92.4912 60.5473 92.1874 60.2228C91.8836 59.8983 91.4645 59.7308 90.9301 59.7308C90.1444 59.7308 89.5996 59.9402 89.2957 60.3903C89.0862 60.6729 88.9814 61.1126 88.9814 61.6779C88.9814 62.4106 89.3167 62.9131 89.9977 63.1643L91.7369 63.8029C92.7217 64.1797 93.3818 64.588 93.7275 65.0172C94.0313 65.4045 94.178 65.9803 94.178 66.734C94.178 67.7598 93.8742 68.5554 93.2665 69.1311C92.6589 69.7174 91.8312 70 90.7939 70C90.1548 70 89.61 69.8849 89.1386 69.665C88.5414 69.3824 88.1118 68.9008 87.8289 68.2623C87.7137 68.032 87.6613 67.7494 87.6299 67.4353C87.5984 67.1108 87.5984 66.734 87.5984 66.2943H88.7824L88.7509 66.6502C88.7509 67.3934 88.8871 67.9483 89.17 68.3042C89.4948 68.702 90.0501 68.9113 90.8358 68.9113C91.4645 68.9113 91.9674 68.7543 92.3445 68.4193C92.7322 68.1053 92.9208 67.6237 92.9208 67.0166C92.9208 66.2838 92.7636 65.7814 92.4703 65.5092C92.3341 65.394 91.8836 65.2056 91.1502 64.9334C90.6892 64.766 90.333 64.6403 90.0815 64.5357C89.61 64.3682 89.2643 64.2112 89.0024 64.0855C88.5204 63.8448 88.2061 63.5203 88.0071 63.112C87.8289 62.7038 87.7346 62.2118 87.7346 61.6151C87.7346 60.7253 88.0071 60.003 88.5728 59.4586C89.1281 58.9038 89.851 58.6317 90.7416 58.6317C91.7159 58.6317 92.4703 58.8724 93.0256 59.354C93.5704 59.825 93.8532 60.5264 93.8532 61.4476V61.7093H93.8637Z" fill="#231F20"/>
<path d="M97.2372 60.3165H96.0743V58.8719H97.2372V60.3165ZM97.2372 69.7378H96.0743V61.6774H97.2372V69.7378Z" fill="#231F20"/>
<path d="M100.453 61.6784V62.5577C100.757 62.1808 101.072 61.9087 101.365 61.7412C101.7 61.5423 102.088 61.4481 102.507 61.4481C103.125 61.4481 103.607 61.6156 103.963 61.961C104.309 62.3065 104.487 62.8194 104.487 63.5103V69.7388H103.356V63.8348C103.356 63.3742 103.261 63.0288 103.083 62.7985C102.905 62.5577 102.58 62.4425 102.13 62.4425C101.679 62.4425 101.312 62.5891 100.988 62.8822C100.768 63.0811 100.621 63.2905 100.569 63.5208C100.495 63.7406 100.464 64.0232 100.464 64.3582V69.7493H99.3533V61.6888H100.464L100.453 61.6784Z" fill="#231F20"/>
<path d="M109.045 62.4321C108.375 62.4321 107.914 62.8299 107.663 63.6045C107.495 64.107 107.422 64.8083 107.422 65.7086V66.054C107.422 66.8705 107.495 67.4881 107.631 67.9173C107.872 68.6396 108.312 68.9956 108.951 68.9956C109.517 68.9956 109.905 68.7757 110.125 68.3361C110.282 68.022 110.366 67.5614 110.366 66.9229H111.497C111.497 67.8022 111.319 68.5036 110.963 69.027C110.533 69.6655 109.905 69.9691 109.056 69.9691C107.945 69.9691 107.17 69.5399 106.72 68.671C106.395 68.043 106.238 67.0904 106.238 65.8028C106.238 64.1488 106.51 62.9764 107.044 62.296C107.505 61.7307 108.155 61.4481 109.025 61.4481C109.8 61.4481 110.407 61.7202 110.837 62.2646C111.235 62.7671 111.434 63.4161 111.434 64.2116H110.355C110.355 63.6987 110.271 63.2905 110.093 63.0078C109.873 62.631 109.506 62.4425 109.014 62.4425L109.045 62.4321Z" fill="#231F20"/>
<path d="M116.735 67.048H117.814V67.226C117.814 68.0111 117.605 68.6601 117.196 69.173C116.766 69.7069 116.159 69.9791 115.373 69.9791C114.587 69.9791 113.917 69.665 113.487 69.0579C113.005 68.367 112.764 67.2364 112.764 65.6872C112.764 64.5775 112.921 63.6668 113.246 62.9445C113.686 61.9501 114.388 61.4581 115.352 61.4581C116.484 61.4581 117.238 61.9396 117.594 62.9236C117.783 63.4575 117.877 64.4205 117.877 65.8128H113.959V66.378C113.959 67.1632 114.022 67.7389 114.158 68.0948C114.378 68.6915 114.807 68.9951 115.404 68.9951C115.855 68.9951 116.211 68.8171 116.431 68.4612C116.641 68.1472 116.746 67.7598 116.746 67.2888V67.0585L116.735 67.048ZM113.959 64.8706H116.683C116.683 64.1379 116.63 63.6145 116.526 63.3004C116.326 62.7247 115.928 62.4316 115.352 62.4316C114.776 62.4316 114.378 62.7142 114.158 63.29C114.032 63.6563 113.959 64.1798 113.959 64.8706Z" fill="#231F20"/>
<path d="M126.981 69.7384V61.8245H124.666V60.8719C125.514 60.8719 126.122 60.7463 126.478 60.5055C126.897 60.2124 127.149 59.6681 127.243 58.862H128.196V69.7279H126.981V69.7384Z" fill="#231F20"/>
<path d="M134.442 58.862C135.741 58.862 136.631 59.4168 137.103 60.5474C137.417 61.2697 137.574 62.4002 137.574 63.9181C137.574 65.0173 137.532 65.8756 137.438 66.4828C137.291 67.5296 137.009 68.3356 136.589 68.9009C136.066 69.6232 135.322 69.9791 134.358 69.9791C133.562 69.9791 132.943 69.7384 132.503 69.2673C132.063 68.7858 131.843 68.1577 131.843 67.3726H133.059C133.059 67.8646 133.174 68.2519 133.404 68.4927C133.635 68.7439 134.002 68.8695 134.505 68.8695C135.301 68.8695 135.856 68.3042 136.149 67.1946C136.317 66.5561 136.401 65.7082 136.401 64.6404C136.191 65.0905 135.908 65.4151 135.542 65.6453C135.175 65.8652 134.777 65.9803 134.368 65.9803C133.446 65.9803 132.744 65.6453 132.252 64.9754C131.812 64.3787 131.581 63.6145 131.581 62.6724C131.581 61.5314 131.854 60.5997 132.378 59.9088C132.912 59.218 133.603 58.8725 134.452 58.8725L134.442 58.862ZM136.275 62.6305C136.275 61.8978 136.16 61.3011 135.929 60.851C135.636 60.2438 135.165 59.9402 134.494 59.9402C133.886 59.9402 133.425 60.2124 133.153 60.7672C132.933 61.1964 132.818 61.7512 132.818 62.4316C132.818 63.1121 132.922 63.6878 133.132 64.0856C133.415 64.6195 133.865 64.8916 134.494 64.8916C135.123 64.8916 135.584 64.6614 135.887 64.2008C136.139 63.8134 136.265 63.29 136.265 62.6305H136.275Z" fill="#231F20"/>
<path d="M138.915 60.1808V59.0817H144.898V60.1076C143.798 61.594 142.959 63.1224 142.341 64.6612C141.66 66.3884 141.325 68.0842 141.325 69.7382H139.963C140.414 66.2 141.723 63.0177 143.913 60.1913H138.915V60.1808Z" fill="#231F20"/>
<path d="M149.391 69.9687C148.082 69.9687 147.191 69.4034 146.73 68.2729C146.406 67.5401 146.259 66.4096 146.259 64.8917C146.259 63.7821 146.301 62.9237 146.385 62.3166C146.531 61.2907 146.825 60.4951 147.244 59.9298C147.778 59.218 148.522 58.8621 149.486 58.8621C150.282 58.8621 150.9 59.0924 151.34 59.553C151.791 60.024 152.011 60.6521 152.011 61.4477H150.795C150.795 60.9452 150.68 60.5684 150.45 60.3172C150.209 60.0659 149.852 59.9403 149.339 59.9403C148.543 59.9403 147.998 60.4951 147.694 61.6257C147.537 62.2537 147.453 63.1017 147.453 64.1799C147.663 63.7402 147.935 63.4052 148.302 63.1749C148.679 62.9551 149.067 62.84 149.486 62.84C150.408 62.84 151.11 63.1749 151.592 63.8449C152.042 64.452 152.262 65.2162 152.262 66.1583C152.262 67.3098 151.99 68.231 151.455 68.9324C150.921 69.6337 150.23 69.9792 149.391 69.9792V69.9687ZM151.015 66.2316C151.015 65.5407 150.9 65.0068 150.659 64.6195C150.355 64.1485 149.894 63.9182 149.255 63.9182C148.616 63.9182 148.134 64.1485 147.872 64.6195C147.663 64.965 147.568 65.4674 147.568 66.106V66.4305C147.568 67.2784 147.736 67.9065 148.071 68.3148C148.375 68.6811 148.805 68.8696 149.36 68.8696C150.01 68.8696 150.45 68.566 150.722 67.9693C150.921 67.5401 151.015 66.9539 151.015 66.2316Z" fill="#231F20"/>
<path d="M39.247 0C42.5577 4.4594 43.6264 10.5414 43.312 16.4767C44.1292 15.744 48.2153 10.2482 48.7182 9.69344C55.6225 19.8056 64.1508 31.5194 64.088 41.642C63.4384 51.325 57.2151 56.5067 50.3212 58.3072C53.569 56.8626 56.8903 52.8324 57.2779 47.7135C57.2989 47.4937 57.3408 47.2843 57.3408 47.0749C57.3722 40.4382 51.7775 33.8538 47.2724 27.2484L47.1362 27.2065C40.3156 34.105 32.5207 39.3704 34.1237 50.1316C17.769 33.5397 31.6406 16.2779 39.247 0.0104681V0Z" fill="#F58220"/>
<path d="M13.0031 49.0011C10.541 47.2948 6.6959 44.9081 1.08021 43.7671C15.0251 82.2373 44.6542 62.8713 48.625 59.3436C40.3586 62.1909 34.5019 62.976 26.2146 58.9249C21.72 56.7475 17.3615 52.0473 13.0031 49.0011Z" fill="#F58220"/>
<path d="M49.0325 58.967C22.2008 69.142 7.93111 39.5906 0 18.7487C7.05104 18.7487 12.7715 20.9051 17.769 25.8356C30.7186 38.6066 27.8899 59.794 49.0325 58.967Z" fill="#F58220"/>
<path d="M120.779 49.7023V20.2871H128.522V31.8438L138.192 20.2871H147.024L136.264 32.4928L147.695 49.7023H139.03L131.34 37.5385L128.522 40.794V49.7023H120.779Z" fill="#FFC20E"/>
<path d="M157.993 49.7023V37.2453L147.139 20.2765H155.604L162.048 31.3308L168.386 20.2765H176.642L165.945 37.2453V43.1283C165.945 45.693 165.327 49.7023 157.993 49.7023Z" fill="#FFC20E"/>
<path d="M113.078 49.7023V20.287H120.81V49.7023H113.078Z" fill="#F58220"/>
<path d="M102.979 44.0392H92.8999L91.3284 49.7024H83.2296L92.8161 20.2871H103.44L113.089 49.7024H104.571L102.979 44.0392ZM101.302 37.7479L97.9498 25.5421L94.6496 37.7479H101.302Z" fill="#F58220"/>
<path d="M72.2807 49.7023V26.5574H63.1552C63.1552 26.5574 65.4811 20.287 72.6474 20.287H89.2954V26.5574H80.1909V49.7023H72.2702H72.2807Z" fill="#F58220"/>
<path d="M185.768 30.8075V30.8389C185.464 30.2632 185.045 29.9806 184.49 29.9806C182.321 29.9806 180.048 32.2417 177.69 36.7325H181.986C181.986 37.1198 181.85 37.4966 181.567 37.8211C181.284 38.1666 180.949 38.3341 180.529 38.3341H177.041C175.783 40.9825 174.526 43.8612 173.29 46.9702C172.074 50.006 170.775 53.607 169.57 57.3336C169.529 57.4278 168.554 56.6532 168.397 55.3342C168.345 54.8946 168.292 54.434 168.292 53.942C168.292 50.7597 169.958 45.421 173.101 38.3655H170.692C170.692 37.9572 170.817 37.5804 171.09 37.2559C171.352 36.9314 171.687 36.7639 172.127 36.7639H173.772C174.62 35.1832 175.427 33.8642 176.234 32.7755C177.03 31.7078 177.858 30.8285 178.717 30.169C179.576 29.4886 180.488 29.0175 181.441 28.7244C182.363 28.4522 183.4 28.2952 184.553 28.2952C186.009 28.2952 186.732 28.7139 186.732 29.5514C186.732 30.2632 186.418 30.6924 185.789 30.8599V30.8285L185.768 30.8075Z" fill="#F58220"/>
<path d="M180.969 39.4223C183.2 37.2554 185.589 36.1563 188.167 36.1563C190.22 36.1563 191.257 37.0984 191.257 38.9722C191.257 41.1914 190.272 43.4944 188.345 45.8707C186.165 48.54 183.703 49.859 180.958 49.859C178.716 49.859 177.606 48.7389 177.606 46.4988C177.606 43.9655 178.716 41.6102 180.979 39.4223H180.969ZM184.29 40.7518C182.718 42.6256 181.933 44.4575 181.933 46.2371C181.933 46.9279 182.257 47.3048 182.907 47.3048C183.379 47.3048 183.892 47.1687 184.384 46.8861C184.908 46.6244 185.411 46.2685 185.872 45.8288C186.354 45.3996 186.805 44.8971 187.234 44.3109C187.674 43.7457 188.051 43.128 188.366 42.5209C188.68 41.8823 188.931 41.2647 189.12 40.6471C189.309 40.0295 189.403 39.4642 189.403 38.9303C189.403 38.2813 189.109 37.9568 188.523 37.9568C187.255 37.9568 185.841 38.8885 184.28 40.7308L184.29 40.7518Z" fill="#F58220"/>
<path d="M194.066 39.4223C196.288 37.2554 198.697 36.1563 201.275 36.1563C203.307 36.1563 204.344 37.0984 204.344 38.9722C204.344 41.1914 203.38 43.4944 201.432 45.8707C199.242 48.54 196.79 49.859 194.024 49.859C191.782 49.859 190.682 48.7389 190.682 46.4987C190.682 43.9655 191.803 41.6102 194.066 39.4223ZM197.388 40.7518C195.816 42.6256 195.03 44.4575 195.03 46.237C195.03 46.9279 195.366 47.3048 196.036 47.3048C196.497 47.3048 197 47.1687 197.492 46.8861C198.006 46.6244 198.509 46.2685 198.98 45.8288C199.452 45.3996 199.902 44.8971 200.353 44.3109C200.793 43.7456 201.159 43.128 201.463 42.5209C201.798 41.8823 202.05 41.2647 202.238 40.6471C202.427 40.0295 202.521 39.4642 202.521 38.9303C202.521 38.2813 202.228 37.9568 201.662 37.9568C200.363 37.9568 198.949 38.8885 197.398 40.7308L197.388 40.7518Z" fill="#F58220"/>
<path d="M226.001 28.8814C223.958 30.5982 221.736 33.5711 219.4 37.8211C216.676 42.7621 215.335 46.9702 215.335 50.4456C214.382 50.4456 213.648 50.0897 213.114 49.3465C212.59 48.6137 212.318 47.6507 212.318 46.4782C212.318 45.5989 212.412 44.929 212.59 44.5207C210.453 48.0275 208.127 49.7652 205.623 49.7652C204.177 49.7652 203.454 48.8336 203.454 46.9912C203.454 45.6303 203.789 44.3009 204.46 43.0028C205.13 41.7153 206 40.5847 207.1 39.5693C208.211 38.5644 209.499 37.7583 210.924 37.1198C212.359 36.5231 213.868 36.1986 215.408 36.1986L216.498 36.3137C217.483 34.4923 218.352 33.0477 219.096 31.959C219.84 30.8599 220.49 30.0434 221.087 29.4676C221.674 28.9023 222.197 28.5255 222.69 28.358C223.161 28.201 223.654 28.1172 224.136 28.1172C225.005 28.1172 225.623 28.358 226.001 28.8814ZM209.688 40.7836C208.315 42.5527 207.645 44.1753 207.645 45.6408C207.645 46.0804 207.802 46.2793 208.179 46.2793C209.311 46.2793 210.662 45.2639 212.276 43.2227L215.702 37.9049L214.801 37.8211C212.894 37.8211 211.197 38.8156 209.688 40.7836Z" fill="#F58220"/>
</g>
<defs>
<clipPath id="clip0_26_586">
<rect width="226" height="70" fill="white"/>
</clipPath>
</defs>
</svg>
