<svg width="32" height="32" viewBox="0 0 32 32" fill="none" xmlns="http://www.w3.org/2000/svg">
<path d="M22.667 2.66669H9.33366C5.65366 2.66669 2.66699 5.64002 2.66699 9.30669V17.28V18.6134C2.66699 22.28 5.65366 25.2534 9.33366 25.2534H11.3337C11.6937 25.2534 12.1737 25.4934 12.4003 25.7867L14.4003 28.44C15.2803 29.6134 16.7203 29.6134 17.6003 28.44L19.6003 25.7867C19.8537 25.4534 20.2537 25.2534 20.667 25.2534H22.667C26.347 25.2534 29.3337 22.28 29.3337 18.6134V9.30669C29.3337 5.64002 26.347 2.66669 22.667 2.66669ZM10.667 16C9.92033 16 9.33366 15.4 9.33366 14.6667C9.33366 13.9334 9.93366 13.3334 10.667 13.3334C11.4003 13.3334 12.0003 13.9334 12.0003 14.6667C12.0003 15.4 11.4137 16 10.667 16ZM16.0003 16C15.2537 16 14.667 15.4 14.667 14.6667C14.667 13.9334 15.267 13.3334 16.0003 13.3334C16.7337 13.3334 17.3337 13.9334 17.3337 14.6667C17.3337 15.4 16.747 16 16.0003 16ZM21.3337 16C20.587 16 20.0003 15.4 20.0003 14.6667C20.0003 13.9334 20.6003 13.3334 21.3337 13.3334C22.067 13.3334 22.667 13.9334 22.667 14.6667C22.667 15.4 22.0803 16 21.3337 16Z" fill="white"/>
</svg>
